<?xml version="1.0" standalone="no"?>
<!DOCTYPE svg PUBLIC "-//W3C//DTD SVG 20010904//EN"
 "http://www.w3.org/TR/2001/REC-SVG-20010904/DTD/svg10.dtd">
<svg version="1.0" xmlns="http://www.w3.org/2000/svg"
 width="707.000000pt" height="251.000000pt" viewBox="0 0 707.000000 251.000000"
 preserveAspectRatio="xMidYMid meet">

<g transform="translate(0.000000,251.000000) scale(0.100000,-0.100000)"
fill="#000000" stroke="none">
<path d="M0 1255 l0 -1255 3535 0 3535 0 0 1255 0 1255 -3535 0 -3535 0 0
-1255z m1094 1021 c102 -43 104 -201 2 -247 -121 -55 -234 22 -207 143 21 91
117 141 205 104z m-411 -8 c16 -12 11 -56 -63 -598 -44 -322 -80 -598 -80
-613 0 -38 25 -45 72 -19 l39 21 11 -25 c10 -22 8 -29 -23 -60 -70 -73 -171
-101 -253 -70 -50 19 -76 51 -76 94 0 17 34 279 75 583 42 304 74 558 72 564
-3 5 -26 16 -52 23 -46 12 -47 13 -41 44 3 17 7 32 9 33 2 3 242 32 273 34 11
0 28 -5 37 -11z m2191 -235 c3 -42 6 -98 6 -124 l0 -48 128 -3 127 -3 0 -65 0
-65 -127 -3 -128 -3 1 -297 c1 -163 4 -308 8 -322 12 -44 49 -56 133 -43 40 6
81 14 91 18 13 6 20 -1 32 -29 8 -19 15 -42 15 -50 0 -37 -180 -98 -290 -98
-130 -1 -192 30 -219 111 -7 23 -11 146 -11 372 l0 339 -55 0 -55 0 0 48 0 47
52 20 c64 25 89 58 123 169 14 45 28 87 30 94 3 8 26 12 68 12 l64 0 7 -77z
m-1730 -174 l26 -20 0 -410 0 -409 39 0 c64 0 71 -6 71 -61 l0 -49 -236 0
-235 0 3 53 c3 47 5 52 28 55 14 1 40 5 58 8 l32 5 -2 332 -3 331 -57 14 -58
14 0 59 c0 32 3 59 8 60 4 0 68 9 142 18 74 10 140 19 146 20 6 0 23 -8 38
-20z m551 5 c22 -14 25 -24 25 -71 l0 -54 33 24 c44 34 143 83 196 97 62 17
192 14 238 -5 61 -26 101 -72 125 -145 19 -59 22 -93 26 -377 l4 -313 33 0
c57 0 65 -7 65 -61 l0 -49 -220 0 -220 0 0 49 c0 53 8 61 61 61 l29 0 0 298
c0 270 -2 301 -19 339 -23 49 -62 73 -120 73 -47 0 -128 -28 -177 -62 l-34
-23 0 -307 0 -308 23 -5 c12 -2 33 -6 47 -7 23 -3 25 -8 28 -55 l3 -53 -221 0
-221 0 3 53 c3 47 5 52 28 55 14 1 35 5 48 8 l22 4 -2 333 -3 332 -52 14 -53
14 0 58 c0 33 1 59 3 60 1 0 61 9 132 19 72 9 134 18 138 19 4 0 19 -6 32 -15z
m2138 -4 c83 -26 155 -88 188 -162 18 -42 24 -76 27 -166 2 -61 1 -123 -2
-137 l-6 -25 -277 0 -276 0 7 -55 c14 -120 69 -214 145 -248 82 -38 251 -19
336 37 21 14 23 12 44 -31 21 -43 21 -46 5 -65 -29 -31 -153 -87 -229 -103
-330 -69 -555 122 -555 470 0 309 174 501 456 504 46 1 96 -6 137 -19z m656
-4 c19 -20 22 -33 19 -70 -3 -49 2 -56 22 -31 18 22 126 80 185 100 30 10 83
16 133 17 134 0 207 -45 249 -154 14 -36 18 -97 22 -368 l6 -325 30 -3 c73 -6
75 -8 75 -62 l0 -50 -221 0 -220 0 3 53 3 52 43 3 44 3 -4 302 c-3 268 -5 306
-21 339 -42 84 -170 89 -289 11 l-38 -26 0 -308 0 -309 23 -5 c12 -2 33 -6 47
-7 23 -3 25 -8 28 -55 l3 -53 -221 0 -221 0 3 53 3 52 40 5 40 5 3 336 2 335
-50 13 -51 13 3 62 3 61 130 16 c72 9 135 17 141 18 6 0 21 -10 33 -23z
m-3939 -1276 c0 -18 -8 -20 -92 -22 l-93 -3 0 -65 0 -65 83 -3 c63 -2 82 -6
82 -17 0 -11 -19 -15 -82 -17 l-83 -3 -3 -87 c-3 -80 -5 -88 -22 -88 -19 0
-20 8 -20 195 l0 195 115 0 c108 0 115 -1 115 -20z m150 -175 l0 -195 -25 0
-25 0 0 195 0 195 25 0 25 0 0 -195z m380 175 c0 -18 -7 -20 -60 -20 l-60 0 0
-175 0 -175 -25 0 -25 0 0 175 0 175 -60 0 c-53 0 -60 2 -60 20 0 19 7 20 145
20 138 0 145 -1 145 -20z m240 -131 l100 -152 0 152 0 151 25 0 25 0 0 -195 0
-195 -23 0 c-18 0 -40 28 -111 138 -49 75 -95 144 -103 152 -11 12 -13 -11
-13 -138 l0 -152 -25 0 -25 0 0 195 0 195 25 0 c22 0 40 -22 125 -151z m510
131 c0 -19 -7 -20 -95 -20 l-95 0 0 -65 0 -65 85 0 c78 0 85 -2 85 -20 0 -18
-7 -20 -85 -20 l-85 0 0 -70 0 -70 100 0 c93 0 100 -1 100 -20 0 -19 -7 -20
-120 -20 l-120 0 0 195 0 195 115 0 c108 0 115 -1 115 -20z m301 4 c17 -8 37
-30 45 -49 18 -45 18 -45 -11 -45 -18 0 -25 5 -25 18 0 55 -113 80 -151 33
-39 -48 -19 -77 81 -116 76 -30 108 -57 116 -101 25 -133 -230 -158 -270 -26
-6 19 -4 22 18 22 15 0 26 -6 26 -13 0 -39 88 -75 136 -57 34 13 44 26 44 61
0 34 -24 55 -92 78 -74 25 -95 40 -113 77 -20 42 -4 89 39 115 38 23 115 25
157 3z m380 -22 c16 -18 29 -41 29 -52 0 -31 -33 -24 -52 10 -23 41 -62 55
-111 40 -47 -14 -65 -51 -43 -86 13 -19 108 -64 135 -64 5 0 23 -13 40 -29 33
-31 42 -82 21 -122 -46 -86 -260 -49 -260 45 0 27 38 18 52 -11 28 -59 145
-63 170 -7 20 43 -2 68 -84 100 -90 34 -128 69 -128 117 0 28 8 42 37 67 34
30 40 32 101 28 58 -4 68 -8 93 -36z"/>
<path d="M3605 1756 c-66 -29 -102 -100 -112 -218 l-6 -68 168 0 168 0 -6 91
c-7 104 -27 152 -77 187 -37 25 -89 28 -135 8z"/>
</g>
</svg>
